<?xml version="1.0" encoding="UTF-8"?>
<svg width="24px" height="17px" viewBox="0 0 24 17" version="1.1" xmlns="http://www.w3.org/2000/svg" xmlns:xlink="http://www.w3.org/1999/xlink">
    <!-- Generator: Sketch 46.2 (44496) - http://www.bohemiancoding.com/sketch -->
    <title>add-section</title>
    <desc>Created with Sketch.</desc>
    <defs></defs>
    <g id="Page-1" stroke="none" stroke-width="1" fill="none" fill-rule="evenodd">
        <g id="Artboard" transform="translate(-45.000000, -185.000000)" fill="#54595D">
            <path d="M59.4,189.8 L45,189.8 L45,192.2 L59.4,192.2 L59.4,189.8 Z M59.4,185 L45,185 L45,187.4 L59.4,187.4 L59.4,185 Z M64.2,194.6 L64.2,189.8 L61.8,189.8 L61.8,194.6 L57,194.6 L57,197 L61.8,197 L61.8,201.8 L64.2,201.8 L64.2,197 L69,197 L69,194.6 L64.2,194.6 Z M45,197 L54.6,197 L54.6,194.6 L45,194.6 L45,197 Z" id="add-section"></path>
        </g>
    </g>
</svg>