<?xml version="1.0" encoding="UTF-8"?>
<svg width="26px" height="19px" viewBox="0 0 26 19" version="1.1" xmlns="http://www.w3.org/2000/svg" xmlns:xlink="http://www.w3.org/1999/xlink">
    <!-- Generator: Sketch 46.2 (44496) - http://www.bohemiancoding.com/sketch -->
    <title>add-section</title>
    <desc>Created with Sketch.</desc>
    <defs></defs>
    <g id="Page-1" stroke="none" stroke-width="1" fill="none" fill-rule="evenodd">
        <g id="Artboard" transform="translate(-45.000000, -185.000000)" fill="#54595D">
            <path d="M60.6,190.2 L45,190.2 L45,192.8 L60.6,192.8 L60.6,190.2 Z M60.6,185 L45,185 L45,187.6 L60.6,187.6 L60.6,185 Z M65.8,195.4 L65.8,190.2 L63.2,190.2 L63.2,195.4 L58,195.4 L58,198 L63.2,198 L63.2,203.2 L65.8,203.2 L65.8,198 L71,198 L71,195.4 L65.8,195.4 Z M45,198 L55.4,198 L55.4,195.4 L45,195.4 L45,198 Z" id="add-section"></path>
        </g>
    </g>
</svg>