<?xml version="1.0" encoding="UTF-8"?>
<svg width="25px" height="21px" viewBox="0 0 25 21" version="1.1" xmlns="http://www.w3.org/2000/svg" xmlns:xlink="http://www.w3.org/1999/xlink">
    <!-- Generator: Sketch 46.2 (44496) - http://www.bohemiancoding.com/sketch -->
    <title>history</title>
    <desc>Created with Sketch.</desc>
    <defs></defs>
    <g id="Page-1" stroke="none" stroke-width="1" fill="none" fill-rule="evenodd">
        <g id="Artboard" transform="translate(-193.000000, -65.000000)" fill="#54595D">
            <path d="M207.264127,65 C201.578413,65 196.984127,69.6057143 196.984127,75.2857143 L193.555556,75.2857143 L198.006984,79.7371429 L198.086984,79.9028571 L202.698413,75.2857143 L199.269841,75.2857143 C199.269841,70.8685714 202.852698,67.2857143 207.269841,67.2857143 C211.686984,67.2857143 215.269841,70.8685714 215.269841,75.2857143 C215.269841,79.7028571 211.686984,83.2857143 207.269841,83.2857143 C205.058413,83.2857143 203.064127,82.3828571 201.618413,80.9371429 L200.00127,82.5542857 C201.858413,84.4171429 204.424127,85.5714286 207.264127,85.5714286 C212.949841,85.5714286 217.555556,80.9657143 217.555556,75.2857143 C217.555556,69.6057143 212.949841,65 207.264127,65 Z M206.126984,70.7142857 L206.126984,76.4285714 L211.018413,79.3314286 L211.84127,77.9428571 L207.84127,75.5714286 L207.84127,70.7142857 L206.126984,70.7142857 Z" id="history"></path>
        </g>
    </g>
</svg>