<?xml version="1.0" encoding="UTF-8"?>
<svg width="25px" height="21px" viewBox="0 0 25 21" version="1.1" xmlns="http://www.w3.org/2000/svg" xmlns:xlink="http://www.w3.org/1999/xlink">
    <!-- Generator: Sketch 46.2 (44496) - http://www.bohemiancoding.com/sketch -->
    <title>history-selected</title>
    <desc>Created with Sketch.</desc>
    <defs></defs>
    <g id="Page-1" stroke="none" stroke-width="1" fill="none" fill-rule="evenodd">
        <g id="Artboard" transform="translate(-193.000000, -125.000000)" fill="#3366CC">
            <path d="M207.264127,125 C201.578413,125 196.984127,129.605714 196.984127,135.285714 L193.555556,135.285714 L198.006984,139.737143 L198.086984,139.902857 L202.698413,135.285714 L199.269841,135.285714 C199.269841,130.868571 202.852698,127.285714 207.269841,127.285714 C211.686984,127.285714 215.269841,130.868571 215.269841,135.285714 C215.269841,139.702857 211.686984,143.285714 207.269841,143.285714 C205.058413,143.285714 203.064127,142.382857 201.618413,140.937143 L200.00127,142.554286 C201.858413,144.417143 204.424127,145.571429 207.264127,145.571429 C212.949841,145.571429 217.555556,140.965714 217.555556,135.285714 C217.555556,129.605714 212.949841,125 207.264127,125 Z M206.126984,130.714286 L206.126984,136.428571 L211.018413,139.331429 L211.84127,137.942857 L207.84127,135.571429 L207.84127,130.714286 L206.126984,130.714286 Z" id="history-selected"></path>
        </g>
    </g>
</svg>