<?xml version="1.0" encoding="UTF-8"?>
<svg width="18px" height="22px" viewBox="0 0 18 22" version="1.1" xmlns="http://www.w3.org/2000/svg" xmlns:xlink="http://www.w3.org/1999/xlink">
    <!-- Generator: Sketch 46.2 (44496) - http://www.bohemiancoding.com/sketch -->
    <title>page-selected</title>
    <desc>Created with Sketch.</desc>
    <defs></defs>
    <g id="Page-1" stroke="none" stroke-width="1" fill="none" fill-rule="evenodd">
        <g id="Artboard" transform="translate(-40.000000, -124.000000)" fill="#3366CC">
            <path d="M49.7777778,133.777778 L54.6666667,133.777778 L54.6666667,127.666667 L49.7777778,127.666667 L49.7777778,133.777778 Z M42.4444444,136.222222 L54.6666667,136.222222 L54.6666667,135 L42.4444444,135 L42.4444444,136.222222 Z M42.4444444,138.666667 L54.6666667,138.666667 L54.6666667,137.444444 L42.4444444,137.444444 L42.4444444,138.666667 Z M42.4444444,141.111111 L54.6666667,141.111111 L54.6666667,139.888889 L42.4444444,139.888889 L42.4444444,141.111111 Z M42.4444444,133.777778 L48.5555556,133.777778 L48.5555556,132.555556 L42.4444444,132.555556 L42.4444444,133.777778 Z M42.4444444,131.333333 L48.5555556,131.333333 L48.5555556,130.111111 L42.4444444,130.111111 L42.4444444,131.333333 Z M42.4444444,128.888889 L48.5555556,128.888889 L48.5555556,127.666667 L42.4444444,127.666667 L42.4444444,128.888889 Z M54.6666667,124 L42.4444444,124 C41.0951111,124 40,125.095111 40,126.444444 L40,143.555556 C40,144.904889 41.0951111,146 42.4444444,146 L54.6666667,146 C56.016,146 57.1111111,144.904889 57.1111111,143.555556 L57.1111111,126.444444 C57.1111111,125.095111 56.016,124 54.6666667,124 L54.6666667,124 Z" id="page-selected"></path>
        </g>
    </g>
</svg>