<?xml version="1.0" encoding="UTF-8"?>
<svg width="18px" height="22px" viewBox="0 0 18 22" version="1.1" xmlns="http://www.w3.org/2000/svg" xmlns:xlink="http://www.w3.org/1999/xlink">
    <!-- Generator: Sketch 46.2 (44496) - http://www.bohemiancoding.com/sketch -->
    <title>page</title>
    <desc>Created with Sketch.</desc>
    <defs></defs>
    <g id="Page-1" stroke="none" stroke-width="1" fill="none" fill-rule="evenodd">
        <g id="Artboard" transform="translate(-40.000000, -64.000000)" fill="#54595D">
            <path d="M49.7777778,73.7777778 L54.6666667,73.7777778 L54.6666667,67.6666667 L49.7777778,67.6666667 L49.7777778,73.7777778 Z M42.4444444,76.2222222 L54.6666667,76.2222222 L54.6666667,75 L42.4444444,75 L42.4444444,76.2222222 Z M42.4444444,78.6666667 L54.6666667,78.6666667 L54.6666667,77.4444444 L42.4444444,77.4444444 L42.4444444,78.6666667 Z M42.4444444,81.1111111 L54.6666667,81.1111111 L54.6666667,79.8888889 L42.4444444,79.8888889 L42.4444444,81.1111111 Z M42.4444444,73.7777778 L48.5555556,73.7777778 L48.5555556,72.5555556 L42.4444444,72.5555556 L42.4444444,73.7777778 Z M42.4444444,71.3333333 L48.5555556,71.3333333 L48.5555556,70.1111111 L42.4444444,70.1111111 L42.4444444,71.3333333 Z M42.4444444,68.8888889 L48.5555556,68.8888889 L48.5555556,67.6666667 L42.4444444,67.6666667 L42.4444444,68.8888889 Z M54.6666667,64 L42.4444444,64 C41.0951111,64 40,65.0951111 40,66.4444444 L40,83.5555556 C40,84.9048889 41.0951111,86 42.4444444,86 L54.6666667,86 C56.016,86 57.1111111,84.9048889 57.1111111,83.5555556 L57.1111111,66.4444444 C57.1111111,65.0951111 56.016,64 54.6666667,64 L54.6666667,64 Z" id="page"></path>
        </g>
    </g>
</svg>