<?xml version="1.0" encoding="UTF-8"?>
<svg width="23px" height="22px" viewBox="0 0 23 22" version="1.1" xmlns="http://www.w3.org/2000/svg" xmlns:xlink="http://www.w3.org/1999/xlink">
    <!-- Generator: Sketch 46.2 (44496) - http://www.bohemiancoding.com/sketch -->
    <title>talk</title>
    <desc>Created with Sketch.</desc>
    <defs></defs>
    <g id="Page-1" stroke="none" stroke-width="1" fill="none" fill-rule="evenodd">
        <g id="Artboard" transform="translate(-114.000000, -64.000000)" fill="#54595D">
            <path d="M134.133333,68.4 C135.348833,68.4 136.333333,69.3845 136.333333,70.6 L136.333333,86 L131.933333,81.6 L120.933333,81.6 C119.717833,81.6 118.733333,80.6155 118.733333,79.4 L118.733333,78.3 L133.033333,78.3 L133.033333,68.4 L134.133333,68.4 Z M129.733333,64 C130.948833,64 131.933333,64.9845 131.933333,66.2 L131.933333,75 C131.933333,76.2155 130.948833,77.2 129.733333,77.2 L118.733333,77.2 L114.333333,81.6 L114.333333,66.2 C114.333333,64.9845 115.317833,64 116.533333,64 L129.733333,64 Z" id="talk"></path>
        </g>
    </g>
</svg>