<?xml version="1.0" encoding="UTF-8"?>
<svg width="23px" height="22px" viewBox="0 0 23 22" version="1.1" xmlns="http://www.w3.org/2000/svg" xmlns:xlink="http://www.w3.org/1999/xlink">
    <!-- Generator: Sketch 46.2 (44496) - http://www.bohemiancoding.com/sketch -->
    <title>talk-selected</title>
    <desc>Created with Sketch.</desc>
    <defs></defs>
    <g id="Page-1" stroke="none" stroke-width="1" fill="none" fill-rule="evenodd">
        <g id="Artboard" transform="translate(-114.000000, -124.000000)" fill="#3366CC">
            <path d="M134.133333,128.4 C135.348833,128.4 136.333333,129.3845 136.333333,130.6 L136.333333,146 L131.933333,141.6 L120.933333,141.6 C119.717833,141.6 118.733333,140.6155 118.733333,139.4 L118.733333,138.3 L133.033333,138.3 L133.033333,128.4 L134.133333,128.4 Z M129.733333,124 C130.948833,124 131.933333,124.9845 131.933333,126.2 L131.933333,135 C131.933333,136.2155 130.948833,137.2 129.733333,137.2 L118.733333,137.2 L114.333333,141.6 L114.333333,126.2 C114.333333,124.9845 115.317833,124 116.533333,124 L129.733333,124 Z" id="talk-selected"></path>
        </g>
    </g>
</svg>